<svg width="256" height="256" viewBox="0 0 256 256" fill="none" xmlns="http://www.w3.org/2000/svg">
<g clip-path="url(#clip0_1_2)">
<circle cx="128" cy="128" r="96" fill="#1F2937"/>
<circle cx="139.5" cy="115.5" r="54.5" fill="#FE795D"/>
<circle cx="139" cy="115" r="30" fill="#1F2937"/>
<rect x="96.9234" y="137.592" width="30" height="81.916" transform="rotate(45 96.9234 137.592)" fill="#FE795D"/>
<path fill-rule="evenodd" clip-rule="evenodd" d="M128 256C198.692 256 256 198.692 256 128C256 57.3076 198.692 0 128 0C57.3076 0 0 57.3076 0 128C0 198.692 57.3076 256 128 256ZM128 224C181.019 224 224 181.019 224 128C224 74.9807 181.019 32 128 32C74.9807 32 32 74.9807 32 128C32 181.019 74.9807 224 128 224Z" fill="#374151"/>
<path fill-rule="evenodd" clip-rule="evenodd" d="M135.708 0.228278C134.828 0.0781792 133.923 0 133 0C124.163 0 117 7.16344 117 16C117 24.5955 123.778 31.608 132.281 31.9841L132.278 32.0936C183.312 34.3318 224 76.4143 224 128C224 181.019 181.019 224 128 224C74.9807 224 32 181.019 32 128C32 115.804 34.2744 104.138 38.4222 93.4055L38.2317 93.319C39.3619 91.1256 40 88.6373 40 86C40 77.1634 32.8366 70 24 70C16.5163 70 10.2327 75.1379 8.48403 82.0787C3.00369 96.3329 0 111.816 0 128C0 198.692 57.3076 256 128 256C198.692 256 256 198.692 256 128C256 59.8957 202.812 4.21411 135.708 0.228278Z" fill="#0E9F6E"/>
</g>
<defs>
<clipPath id="clip0_1_2">
<rect width="256" height="256" fill="white"/>
</clipPath>
</defs>
</svg>
